<mxfile host="Electron" modified="2023-08-29T10:26:05.562Z" agent="Mozilla/5.0 (Windows NT 10.0; Win64; x64) AppleWebKit/537.36 (KHTML, like Gecko) draw.io/21.6.5 Chrome/114.0.5735.243 Electron/25.3.1 Safari/537.36" etag="g47Br4bRPg47fsKq35EB" version="21.6.5" type="device">
  <diagram name="Page-1" id="pGTYOQ22nW4cFM4F6Q6v">
    <mxGraphModel dx="664" dy="673" grid="1" gridSize="10" guides="1" tooltips="1" connect="1" arrows="1" fold="1" page="1" pageScale="1" pageWidth="850" pageHeight="1100" math="0" shadow="0">
      <root>
        <mxCell id="0" />
        <mxCell id="1" parent="0" />
        <mxCell id="bDVmneFDJ4s9jT3Jyls3-1" value="" style="whiteSpace=wrap;html=1;aspect=fixed;fillColor=#dae8fc;strokeColor=#6c8ebf;" vertex="1" parent="1">
          <mxGeometry x="130" y="100" width="580" height="580" as="geometry" />
        </mxCell>
        <mxCell id="bDVmneFDJ4s9jT3Jyls3-3" value="" style="rounded=1;whiteSpace=wrap;html=1;fillColor=#fff2cc;strokeColor=#d6b656;" vertex="1" parent="1">
          <mxGeometry x="150" y="110" width="530" height="60" as="geometry" />
        </mxCell>
        <mxCell id="bDVmneFDJ4s9jT3Jyls3-4" value="" style="rounded=1;whiteSpace=wrap;html=1;fillColor=#fff2cc;strokeColor=#d6b656;" vertex="1" parent="1">
          <mxGeometry x="150" y="610" width="530" height="60" as="geometry" />
        </mxCell>
        <mxCell id="bDVmneFDJ4s9jT3Jyls3-7" value="" style="rounded=0;whiteSpace=wrap;html=1;fillColor=#e1d5e7;strokeColor=#9673a6;" vertex="1" parent="1">
          <mxGeometry x="150" y="190" width="530" height="400" as="geometry" />
        </mxCell>
        <mxCell id="bDVmneFDJ4s9jT3Jyls3-8" value="" style="ellipse;whiteSpace=wrap;html=1;aspect=fixed;" vertex="1" parent="1">
          <mxGeometry x="190" y="115" width="50" height="50" as="geometry" />
        </mxCell>
        <mxCell id="bDVmneFDJ4s9jT3Jyls3-9" value="" style="rounded=0;whiteSpace=wrap;html=1;fillColor=#ebeaea;" vertex="1" parent="1">
          <mxGeometry x="510" y="110" width="155" height="60" as="geometry" />
        </mxCell>
        <mxCell id="bDVmneFDJ4s9jT3Jyls3-11" value="" style="whiteSpace=wrap;html=1;aspect=fixed;" vertex="1" parent="1">
          <mxGeometry x="530" y="115" width="50" height="50" as="geometry" />
        </mxCell>
        <mxCell id="bDVmneFDJ4s9jT3Jyls3-12" value="" style="whiteSpace=wrap;html=1;aspect=fixed;" vertex="1" parent="1">
          <mxGeometry x="600" y="115" width="50" height="50" as="geometry" />
        </mxCell>
        <mxCell id="bDVmneFDJ4s9jT3Jyls3-15" value="" style="rounded=1;whiteSpace=wrap;html=1;" vertex="1" parent="1">
          <mxGeometry x="180" y="380" width="260" height="40" as="geometry" />
        </mxCell>
        <mxCell id="bDVmneFDJ4s9jT3Jyls3-17" value="" style="rounded=0;whiteSpace=wrap;html=1;fillColor=#fff2cc;strokeColor=#d6b656;gradientColor=#ffd966;" vertex="1" parent="1">
          <mxGeometry x="170" y="270" width="490" height="310" as="geometry" />
        </mxCell>
        <mxCell id="bDVmneFDJ4s9jT3Jyls3-18" value="" style="rounded=1;whiteSpace=wrap;html=1;" vertex="1" parent="1">
          <mxGeometry x="190" y="615" width="70" height="45" as="geometry" />
        </mxCell>
        <mxCell id="bDVmneFDJ4s9jT3Jyls3-19" value="" style="rounded=1;whiteSpace=wrap;html=1;" vertex="1" parent="1">
          <mxGeometry x="310" y="617.5" width="120" height="45" as="geometry" />
        </mxCell>
        <mxCell id="bDVmneFDJ4s9jT3Jyls3-20" value="" style="rounded=1;whiteSpace=wrap;html=1;" vertex="1" parent="1">
          <mxGeometry x="450" y="617.5" width="180" height="45" as="geometry" />
        </mxCell>
        <mxCell id="bDVmneFDJ4s9jT3Jyls3-21" value="" style="whiteSpace=wrap;html=1;aspect=fixed;" vertex="1" parent="1">
          <mxGeometry x="190" y="290" width="135" height="135" as="geometry" />
        </mxCell>
        <mxCell id="bDVmneFDJ4s9jT3Jyls3-27" value="" style="rounded=1;whiteSpace=wrap;html=1;" vertex="1" parent="1">
          <mxGeometry x="290" y="117.5" width="200" height="45" as="geometry" />
        </mxCell>
        <mxCell id="bDVmneFDJ4s9jT3Jyls3-31" value="" style="rounded=0;whiteSpace=wrap;html=1;" vertex="1" parent="1">
          <mxGeometry x="170" y="200" width="500" height="60" as="geometry" />
        </mxCell>
        <mxCell id="bDVmneFDJ4s9jT3Jyls3-33" value="" style="rounded=1;whiteSpace=wrap;html=1;" vertex="1" parent="1">
          <mxGeometry x="185" y="205" width="240" height="45" as="geometry" />
        </mxCell>
        <mxCell id="bDVmneFDJ4s9jT3Jyls3-34" value="" style="rounded=1;whiteSpace=wrap;html=1;" vertex="1" parent="1">
          <mxGeometry x="435" y="205" width="115" height="45" as="geometry" />
        </mxCell>
        <mxCell id="bDVmneFDJ4s9jT3Jyls3-35" value="" style="rounded=1;whiteSpace=wrap;html=1;" vertex="1" parent="1">
          <mxGeometry x="557.5" y="205" width="102.5" height="45" as="geometry" />
        </mxCell>
        <mxCell id="bDVmneFDJ4s9jT3Jyls3-36" value="" style="rounded=1;whiteSpace=wrap;html=1;fillColor=#C7FFFB;" vertex="1" parent="1">
          <mxGeometry x="196.88" y="305" width="121.25" height="60" as="geometry" />
        </mxCell>
        <mxCell id="bDVmneFDJ4s9jT3Jyls3-37" value="" style="rounded=0;whiteSpace=wrap;html=1;" vertex="1" parent="1">
          <mxGeometry x="199.38" y="370" width="116.25" height="50" as="geometry" />
        </mxCell>
        <mxCell id="bDVmneFDJ4s9jT3Jyls3-38" value="" style="rounded=0;whiteSpace=wrap;html=1;" vertex="1" parent="1">
          <mxGeometry x="202.5" y="380" width="110" height="10" as="geometry" />
        </mxCell>
        <mxCell id="bDVmneFDJ4s9jT3Jyls3-39" value="" style="rounded=0;whiteSpace=wrap;html=1;" vertex="1" parent="1">
          <mxGeometry x="202.5" y="395" width="110" height="10" as="geometry" />
        </mxCell>
        <mxCell id="bDVmneFDJ4s9jT3Jyls3-40" value="" style="rounded=0;whiteSpace=wrap;html=1;" vertex="1" parent="1">
          <mxGeometry x="202.5" y="410" width="110" height="10" as="geometry" />
        </mxCell>
        <mxCell id="bDVmneFDJ4s9jT3Jyls3-41" value="" style="rounded=1;whiteSpace=wrap;html=1;" vertex="1" parent="1">
          <mxGeometry x="280" y="380" width="30" height="10" as="geometry" />
        </mxCell>
        <mxCell id="bDVmneFDJ4s9jT3Jyls3-42" value="Image" style="text;html=1;strokeColor=none;fillColor=none;align=center;verticalAlign=middle;whiteSpace=wrap;rounded=0;" vertex="1" parent="1">
          <mxGeometry x="227.5" y="320" width="60" height="30" as="geometry" />
        </mxCell>
        <mxCell id="bDVmneFDJ4s9jT3Jyls3-43" value="Name" style="text;html=1;strokeColor=none;fillColor=none;align=center;verticalAlign=middle;whiteSpace=wrap;rounded=0;fontSize=10;" vertex="1" parent="1">
          <mxGeometry x="210" y="380" width="52.5" height="10" as="geometry" />
        </mxCell>
        <mxCell id="bDVmneFDJ4s9jT3Jyls3-44" value="Type of cusine" style="text;html=1;strokeColor=none;fillColor=none;align=center;verticalAlign=middle;whiteSpace=wrap;rounded=0;fontSize=9;" vertex="1" parent="1">
          <mxGeometry x="210" y="395" width="80" height="10" as="geometry" />
        </mxCell>
        <mxCell id="bDVmneFDJ4s9jT3Jyls3-45" value="Delivery time" style="text;html=1;strokeColor=none;fillColor=none;align=center;verticalAlign=middle;whiteSpace=wrap;rounded=0;fontSize=9;" vertex="1" parent="1">
          <mxGeometry x="220" y="410" width="70" height="10" as="geometry" />
        </mxCell>
        <mxCell id="bDVmneFDJ4s9jT3Jyls3-46" value="Rating" style="text;html=1;strokeColor=none;fillColor=none;align=center;verticalAlign=middle;whiteSpace=wrap;rounded=0;fontSize=7;" vertex="1" parent="1">
          <mxGeometry x="274.38" y="380" width="41.25" height="10" as="geometry" />
        </mxCell>
        <mxCell id="bDVmneFDJ4s9jT3Jyls3-72" value="" style="whiteSpace=wrap;html=1;aspect=fixed;" vertex="1" parent="1">
          <mxGeometry x="340" y="290" width="135" height="135" as="geometry" />
        </mxCell>
        <mxCell id="bDVmneFDJ4s9jT3Jyls3-73" value="" style="rounded=1;whiteSpace=wrap;html=1;fillColor=#C7FFFB;" vertex="1" parent="1">
          <mxGeometry x="346.88" y="305" width="121.25" height="60" as="geometry" />
        </mxCell>
        <mxCell id="bDVmneFDJ4s9jT3Jyls3-74" value="" style="rounded=0;whiteSpace=wrap;html=1;" vertex="1" parent="1">
          <mxGeometry x="349.38" y="370" width="116.25" height="50" as="geometry" />
        </mxCell>
        <mxCell id="bDVmneFDJ4s9jT3Jyls3-75" value="" style="rounded=0;whiteSpace=wrap;html=1;" vertex="1" parent="1">
          <mxGeometry x="352.5" y="380" width="110" height="10" as="geometry" />
        </mxCell>
        <mxCell id="bDVmneFDJ4s9jT3Jyls3-76" value="" style="rounded=0;whiteSpace=wrap;html=1;" vertex="1" parent="1">
          <mxGeometry x="352.5" y="395" width="110" height="10" as="geometry" />
        </mxCell>
        <mxCell id="bDVmneFDJ4s9jT3Jyls3-77" value="" style="rounded=0;whiteSpace=wrap;html=1;" vertex="1" parent="1">
          <mxGeometry x="352.5" y="410" width="110" height="10" as="geometry" />
        </mxCell>
        <mxCell id="bDVmneFDJ4s9jT3Jyls3-78" value="Image" style="text;html=1;strokeColor=none;fillColor=none;align=center;verticalAlign=middle;whiteSpace=wrap;rounded=0;" vertex="1" parent="1">
          <mxGeometry x="377.5" y="320" width="60" height="30" as="geometry" />
        </mxCell>
        <mxCell id="bDVmneFDJ4s9jT3Jyls3-79" value="Name" style="text;html=1;strokeColor=none;fillColor=none;align=center;verticalAlign=middle;whiteSpace=wrap;rounded=0;fontSize=10;" vertex="1" parent="1">
          <mxGeometry x="360" y="380" width="52.5" height="10" as="geometry" />
        </mxCell>
        <mxCell id="bDVmneFDJ4s9jT3Jyls3-80" value="Type of cusine" style="text;html=1;strokeColor=none;fillColor=none;align=center;verticalAlign=middle;whiteSpace=wrap;rounded=0;fontSize=9;" vertex="1" parent="1">
          <mxGeometry x="360" y="395" width="80" height="10" as="geometry" />
        </mxCell>
        <mxCell id="bDVmneFDJ4s9jT3Jyls3-81" value="Delivery time" style="text;html=1;strokeColor=none;fillColor=none;align=center;verticalAlign=middle;whiteSpace=wrap;rounded=0;fontSize=9;" vertex="1" parent="1">
          <mxGeometry x="370" y="410" width="70" height="10" as="geometry" />
        </mxCell>
        <mxCell id="bDVmneFDJ4s9jT3Jyls3-82" value="Rating" style="text;html=1;strokeColor=none;fillColor=none;align=center;verticalAlign=middle;whiteSpace=wrap;rounded=0;fontSize=7;" vertex="1" parent="1">
          <mxGeometry x="424.38" y="380" width="41.25" height="10" as="geometry" />
        </mxCell>
        <mxCell id="bDVmneFDJ4s9jT3Jyls3-83" value="" style="whiteSpace=wrap;html=1;aspect=fixed;" vertex="1" parent="1">
          <mxGeometry x="500" y="290" width="135" height="135" as="geometry" />
        </mxCell>
        <mxCell id="bDVmneFDJ4s9jT3Jyls3-84" value="" style="rounded=1;whiteSpace=wrap;html=1;fillColor=#C7FFFB;" vertex="1" parent="1">
          <mxGeometry x="506.88" y="305" width="121.25" height="60" as="geometry" />
        </mxCell>
        <mxCell id="bDVmneFDJ4s9jT3Jyls3-85" value="" style="rounded=0;whiteSpace=wrap;html=1;" vertex="1" parent="1">
          <mxGeometry x="509.38" y="370" width="116.25" height="50" as="geometry" />
        </mxCell>
        <mxCell id="bDVmneFDJ4s9jT3Jyls3-86" value="" style="rounded=0;whiteSpace=wrap;html=1;" vertex="1" parent="1">
          <mxGeometry x="512.5" y="380" width="110" height="10" as="geometry" />
        </mxCell>
        <mxCell id="bDVmneFDJ4s9jT3Jyls3-87" value="" style="rounded=0;whiteSpace=wrap;html=1;" vertex="1" parent="1">
          <mxGeometry x="512.5" y="395" width="110" height="10" as="geometry" />
        </mxCell>
        <mxCell id="bDVmneFDJ4s9jT3Jyls3-88" value="" style="rounded=0;whiteSpace=wrap;html=1;" vertex="1" parent="1">
          <mxGeometry x="512.5" y="410" width="110" height="10" as="geometry" />
        </mxCell>
        <mxCell id="bDVmneFDJ4s9jT3Jyls3-89" value="Image" style="text;html=1;strokeColor=none;fillColor=none;align=center;verticalAlign=middle;whiteSpace=wrap;rounded=0;" vertex="1" parent="1">
          <mxGeometry x="537.5" y="320" width="60" height="30" as="geometry" />
        </mxCell>
        <mxCell id="bDVmneFDJ4s9jT3Jyls3-90" value="Name" style="text;html=1;strokeColor=none;fillColor=none;align=center;verticalAlign=middle;whiteSpace=wrap;rounded=0;fontSize=10;" vertex="1" parent="1">
          <mxGeometry x="520" y="380" width="52.5" height="10" as="geometry" />
        </mxCell>
        <mxCell id="bDVmneFDJ4s9jT3Jyls3-91" value="Type of cusine" style="text;html=1;strokeColor=none;fillColor=none;align=center;verticalAlign=middle;whiteSpace=wrap;rounded=0;fontSize=9;" vertex="1" parent="1">
          <mxGeometry x="520" y="395" width="80" height="10" as="geometry" />
        </mxCell>
        <mxCell id="bDVmneFDJ4s9jT3Jyls3-92" value="Delivery time" style="text;html=1;strokeColor=none;fillColor=none;align=center;verticalAlign=middle;whiteSpace=wrap;rounded=0;fontSize=9;" vertex="1" parent="1">
          <mxGeometry x="530" y="410" width="70" height="10" as="geometry" />
        </mxCell>
        <mxCell id="bDVmneFDJ4s9jT3Jyls3-93" value="Rating" style="text;html=1;strokeColor=none;fillColor=none;align=center;verticalAlign=middle;whiteSpace=wrap;rounded=0;fontSize=7;" vertex="1" parent="1">
          <mxGeometry x="584.38" y="380" width="41.25" height="10" as="geometry" />
        </mxCell>
        <mxCell id="bDVmneFDJ4s9jT3Jyls3-94" value="" style="whiteSpace=wrap;html=1;aspect=fixed;" vertex="1" parent="1">
          <mxGeometry x="187.5" y="435" width="135" height="135" as="geometry" />
        </mxCell>
        <mxCell id="bDVmneFDJ4s9jT3Jyls3-95" value="" style="rounded=1;whiteSpace=wrap;html=1;fillColor=#C7FFFB;" vertex="1" parent="1">
          <mxGeometry x="194.38" y="450" width="121.25" height="60" as="geometry" />
        </mxCell>
        <mxCell id="bDVmneFDJ4s9jT3Jyls3-96" value="" style="rounded=0;whiteSpace=wrap;html=1;" vertex="1" parent="1">
          <mxGeometry x="196.88" y="515" width="116.25" height="50" as="geometry" />
        </mxCell>
        <mxCell id="bDVmneFDJ4s9jT3Jyls3-97" value="" style="rounded=0;whiteSpace=wrap;html=1;" vertex="1" parent="1">
          <mxGeometry x="200" y="525" width="110" height="10" as="geometry" />
        </mxCell>
        <mxCell id="bDVmneFDJ4s9jT3Jyls3-98" value="" style="rounded=0;whiteSpace=wrap;html=1;" vertex="1" parent="1">
          <mxGeometry x="200" y="540" width="110" height="10" as="geometry" />
        </mxCell>
        <mxCell id="bDVmneFDJ4s9jT3Jyls3-99" value="" style="rounded=0;whiteSpace=wrap;html=1;" vertex="1" parent="1">
          <mxGeometry x="200" y="555" width="110" height="10" as="geometry" />
        </mxCell>
        <mxCell id="bDVmneFDJ4s9jT3Jyls3-100" value="Image" style="text;html=1;strokeColor=none;fillColor=none;align=center;verticalAlign=middle;whiteSpace=wrap;rounded=0;" vertex="1" parent="1">
          <mxGeometry x="225" y="465" width="60" height="30" as="geometry" />
        </mxCell>
        <mxCell id="bDVmneFDJ4s9jT3Jyls3-101" value="Name" style="text;html=1;strokeColor=none;fillColor=none;align=center;verticalAlign=middle;whiteSpace=wrap;rounded=0;fontSize=10;" vertex="1" parent="1">
          <mxGeometry x="207.5" y="525" width="52.5" height="10" as="geometry" />
        </mxCell>
        <mxCell id="bDVmneFDJ4s9jT3Jyls3-102" value="Type of cusine" style="text;html=1;strokeColor=none;fillColor=none;align=center;verticalAlign=middle;whiteSpace=wrap;rounded=0;fontSize=9;" vertex="1" parent="1">
          <mxGeometry x="207.5" y="540" width="80" height="10" as="geometry" />
        </mxCell>
        <mxCell id="bDVmneFDJ4s9jT3Jyls3-103" value="Delivery time" style="text;html=1;strokeColor=none;fillColor=none;align=center;verticalAlign=middle;whiteSpace=wrap;rounded=0;fontSize=9;" vertex="1" parent="1">
          <mxGeometry x="217.5" y="555" width="70" height="10" as="geometry" />
        </mxCell>
        <mxCell id="bDVmneFDJ4s9jT3Jyls3-104" value="Rating" style="text;html=1;strokeColor=none;fillColor=none;align=center;verticalAlign=middle;whiteSpace=wrap;rounded=0;fontSize=7;" vertex="1" parent="1">
          <mxGeometry x="271.88" y="525" width="41.25" height="10" as="geometry" />
        </mxCell>
        <mxCell id="bDVmneFDJ4s9jT3Jyls3-116" value="" style="whiteSpace=wrap;html=1;aspect=fixed;" vertex="1" parent="1">
          <mxGeometry x="340" y="435" width="135" height="135" as="geometry" />
        </mxCell>
        <mxCell id="bDVmneFDJ4s9jT3Jyls3-117" value="" style="rounded=1;whiteSpace=wrap;html=1;fillColor=#C7FFFB;" vertex="1" parent="1">
          <mxGeometry x="346.88" y="450" width="121.25" height="60" as="geometry" />
        </mxCell>
        <mxCell id="bDVmneFDJ4s9jT3Jyls3-118" value="" style="rounded=0;whiteSpace=wrap;html=1;" vertex="1" parent="1">
          <mxGeometry x="349.38" y="515" width="116.25" height="50" as="geometry" />
        </mxCell>
        <mxCell id="bDVmneFDJ4s9jT3Jyls3-119" value="" style="rounded=0;whiteSpace=wrap;html=1;" vertex="1" parent="1">
          <mxGeometry x="352.5" y="525" width="110" height="10" as="geometry" />
        </mxCell>
        <mxCell id="bDVmneFDJ4s9jT3Jyls3-120" value="" style="rounded=0;whiteSpace=wrap;html=1;" vertex="1" parent="1">
          <mxGeometry x="352.5" y="540" width="110" height="10" as="geometry" />
        </mxCell>
        <mxCell id="bDVmneFDJ4s9jT3Jyls3-121" value="" style="rounded=0;whiteSpace=wrap;html=1;" vertex="1" parent="1">
          <mxGeometry x="352.5" y="555" width="110" height="10" as="geometry" />
        </mxCell>
        <mxCell id="bDVmneFDJ4s9jT3Jyls3-122" value="Image" style="text;html=1;strokeColor=none;fillColor=none;align=center;verticalAlign=middle;whiteSpace=wrap;rounded=0;" vertex="1" parent="1">
          <mxGeometry x="377.5" y="465" width="60" height="30" as="geometry" />
        </mxCell>
        <mxCell id="bDVmneFDJ4s9jT3Jyls3-123" value="Name" style="text;html=1;strokeColor=none;fillColor=none;align=center;verticalAlign=middle;whiteSpace=wrap;rounded=0;fontSize=10;" vertex="1" parent="1">
          <mxGeometry x="360" y="525" width="52.5" height="10" as="geometry" />
        </mxCell>
        <mxCell id="bDVmneFDJ4s9jT3Jyls3-124" value="Type of cusine" style="text;html=1;strokeColor=none;fillColor=none;align=center;verticalAlign=middle;whiteSpace=wrap;rounded=0;fontSize=9;" vertex="1" parent="1">
          <mxGeometry x="360" y="540" width="80" height="10" as="geometry" />
        </mxCell>
        <mxCell id="bDVmneFDJ4s9jT3Jyls3-125" value="Delivery time" style="text;html=1;strokeColor=none;fillColor=none;align=center;verticalAlign=middle;whiteSpace=wrap;rounded=0;fontSize=9;" vertex="1" parent="1">
          <mxGeometry x="370" y="555" width="70" height="10" as="geometry" />
        </mxCell>
        <mxCell id="bDVmneFDJ4s9jT3Jyls3-126" value="Rating" style="text;html=1;strokeColor=none;fillColor=none;align=center;verticalAlign=middle;whiteSpace=wrap;rounded=0;fontSize=7;" vertex="1" parent="1">
          <mxGeometry x="424.38" y="525" width="41.25" height="10" as="geometry" />
        </mxCell>
        <mxCell id="bDVmneFDJ4s9jT3Jyls3-127" value="" style="whiteSpace=wrap;html=1;aspect=fixed;" vertex="1" parent="1">
          <mxGeometry x="500" y="435" width="135" height="135" as="geometry" />
        </mxCell>
        <mxCell id="bDVmneFDJ4s9jT3Jyls3-128" value="" style="rounded=1;whiteSpace=wrap;html=1;fillColor=#C7FFFB;" vertex="1" parent="1">
          <mxGeometry x="506.88" y="450" width="121.25" height="60" as="geometry" />
        </mxCell>
        <mxCell id="bDVmneFDJ4s9jT3Jyls3-129" value="" style="rounded=0;whiteSpace=wrap;html=1;" vertex="1" parent="1">
          <mxGeometry x="509.38" y="515" width="116.25" height="50" as="geometry" />
        </mxCell>
        <mxCell id="bDVmneFDJ4s9jT3Jyls3-130" value="" style="rounded=0;whiteSpace=wrap;html=1;" vertex="1" parent="1">
          <mxGeometry x="512.5" y="525" width="110" height="10" as="geometry" />
        </mxCell>
        <mxCell id="bDVmneFDJ4s9jT3Jyls3-131" value="" style="rounded=0;whiteSpace=wrap;html=1;" vertex="1" parent="1">
          <mxGeometry x="512.5" y="540" width="110" height="10" as="geometry" />
        </mxCell>
        <mxCell id="bDVmneFDJ4s9jT3Jyls3-132" value="" style="rounded=0;whiteSpace=wrap;html=1;" vertex="1" parent="1">
          <mxGeometry x="512.5" y="555" width="110" height="10" as="geometry" />
        </mxCell>
        <mxCell id="bDVmneFDJ4s9jT3Jyls3-133" value="Image" style="text;html=1;strokeColor=none;fillColor=none;align=center;verticalAlign=middle;whiteSpace=wrap;rounded=0;" vertex="1" parent="1">
          <mxGeometry x="537.5" y="465" width="60" height="30" as="geometry" />
        </mxCell>
        <mxCell id="bDVmneFDJ4s9jT3Jyls3-134" value="Name" style="text;html=1;strokeColor=none;fillColor=none;align=center;verticalAlign=middle;whiteSpace=wrap;rounded=0;fontSize=10;" vertex="1" parent="1">
          <mxGeometry x="520" y="525" width="52.5" height="10" as="geometry" />
        </mxCell>
        <mxCell id="bDVmneFDJ4s9jT3Jyls3-135" value="Type of cusine" style="text;html=1;strokeColor=none;fillColor=none;align=center;verticalAlign=middle;whiteSpace=wrap;rounded=0;fontSize=9;" vertex="1" parent="1">
          <mxGeometry x="520" y="540" width="80" height="10" as="geometry" />
        </mxCell>
        <mxCell id="bDVmneFDJ4s9jT3Jyls3-136" value="Delivery time" style="text;html=1;strokeColor=none;fillColor=none;align=center;verticalAlign=middle;whiteSpace=wrap;rounded=0;fontSize=9;" vertex="1" parent="1">
          <mxGeometry x="530" y="555" width="70" height="10" as="geometry" />
        </mxCell>
        <mxCell id="bDVmneFDJ4s9jT3Jyls3-137" value="Rating" style="text;html=1;strokeColor=none;fillColor=none;align=center;verticalAlign=middle;whiteSpace=wrap;rounded=0;fontSize=7;" vertex="1" parent="1">
          <mxGeometry x="584.38" y="525" width="41.25" height="10" as="geometry" />
        </mxCell>
        <mxCell id="bDVmneFDJ4s9jT3Jyls3-138" value="Location" style="text;html=1;strokeColor=none;fillColor=none;align=center;verticalAlign=middle;whiteSpace=wrap;rounded=0;" vertex="1" parent="1">
          <mxGeometry x="340" y="125" width="60" height="30" as="geometry" />
        </mxCell>
        <mxCell id="bDVmneFDJ4s9jT3Jyls3-139" value="LOGO" style="text;html=1;strokeColor=none;fillColor=none;align=center;verticalAlign=middle;whiteSpace=wrap;rounded=0;" vertex="1" parent="1">
          <mxGeometry x="200" y="125" width="30" height="25" as="geometry" />
        </mxCell>
        <mxCell id="bDVmneFDJ4s9jT3Jyls3-151" value="Log In" style="text;html=1;strokeColor=none;fillColor=none;align=center;verticalAlign=middle;whiteSpace=wrap;rounded=0;" vertex="1" parent="1">
          <mxGeometry x="535.6199999999999" y="127.5" width="44.38" height="25" as="geometry" />
        </mxCell>
        <mxCell id="bDVmneFDJ4s9jT3Jyls3-152" value="Sign Up" style="text;html=1;strokeColor=none;fillColor=none;align=center;verticalAlign=middle;whiteSpace=wrap;rounded=0;" vertex="1" parent="1">
          <mxGeometry x="600" y="130" width="52.5" height="22.5" as="geometry" />
        </mxCell>
        <mxCell id="bDVmneFDJ4s9jT3Jyls3-153" value="Search Bar" style="text;html=1;strokeColor=none;fillColor=none;align=center;verticalAlign=middle;whiteSpace=wrap;rounded=0;" vertex="1" parent="1">
          <mxGeometry x="241.88" y="215" width="107.5" height="30" as="geometry" />
        </mxCell>
        <mxCell id="bDVmneFDJ4s9jT3Jyls3-154" value="Filter" style="text;html=1;strokeColor=none;fillColor=none;align=center;verticalAlign=middle;whiteSpace=wrap;rounded=0;" vertex="1" parent="1">
          <mxGeometry x="462.5" y="211.25" width="60" height="30" as="geometry" />
        </mxCell>
        <mxCell id="bDVmneFDJ4s9jT3Jyls3-155" value="Sort" style="text;html=1;strokeColor=none;fillColor=none;align=center;verticalAlign=middle;whiteSpace=wrap;rounded=0;" vertex="1" parent="1">
          <mxGeometry x="572.5" y="212.5" width="60" height="30" as="geometry" />
        </mxCell>
        <mxCell id="bDVmneFDJ4s9jT3Jyls3-156" value="Copyright" style="text;html=1;strokeColor=none;fillColor=none;align=center;verticalAlign=middle;whiteSpace=wrap;rounded=0;" vertex="1" parent="1">
          <mxGeometry x="194.38" y="622.5" width="60" height="30" as="geometry" />
        </mxCell>
        <mxCell id="bDVmneFDJ4s9jT3Jyls3-157" value="Address" style="text;html=1;strokeColor=none;fillColor=none;align=center;verticalAlign=middle;whiteSpace=wrap;rounded=0;" vertex="1" parent="1">
          <mxGeometry x="340" y="625" width="60" height="30" as="geometry" />
        </mxCell>
        <mxCell id="bDVmneFDJ4s9jT3Jyls3-158" value="Contact" style="text;html=1;strokeColor=none;fillColor=none;align=center;verticalAlign=middle;whiteSpace=wrap;rounded=0;" vertex="1" parent="1">
          <mxGeometry x="516.25" y="625" width="60" height="30" as="geometry" />
        </mxCell>
      </root>
    </mxGraphModel>
  </diagram>
</mxfile>
